<svg xmlns="http://www.w3.org/2000/svg" viewBox="0 0 200 200" fill="none" stroke="currentColor" stroke-width="1.5" stroke-linecap="round" stroke-linejoin="round" role="img" aria-label="A government decree with dangling wax seal beneath a paperweight">
  <circle cx="100" cy="100" r="94" stroke-width="1"/>
  <circle cx="100" cy="100" r="88" stroke-width="0.5"/>
  <path d="M72 66 H124 V126 C116 124 112 130 106 132 H72 Z" stroke-width="2"/>
  <path d="M106 132 C110 127 116 127 118 131" stroke-width="0.75"/>
  <path d="M80 73 H104" stroke-width="1.5"/>
  <path d="M80 82 H116 M80 89 H116 M80 96 H110 M80 103 H116 M80 110 H104 M80 117 H112" stroke-width="0.75"/>
  <path d="M86 66 A12 12 0 0 1 110 66" stroke-width="2"/>
  <path d="M86 66 H110" stroke-width="1.5"/>
  <path d="M92 60 A6 6 0 0 1 102 58" stroke-width="0.75"/>
  <path d="M100 132 C104 137 108 140 111 143 M96 132 C100 139 105 143 109 146"/>
  <circle cx="114" cy="148" r="6.5" fill="var(--em-accent, #f2b705)" stroke="none"/>
  <path d="M111 148 h6 M114 145 v6" stroke-width="0.75"/>
  <ellipse cx="98" cy="152" rx="30" ry="2" stroke-width="0.75"/>
  <circle cx="68" cy="140" r="0.7" fill="currentColor" stroke="none"/>
  <circle cx="128" cy="136" r="0.7" fill="currentColor" stroke="none"/>
</svg>
