<svg xmlns="http://www.w3.org/2000/svg" viewBox="0 0 200 200" fill="none" stroke="currentColor" stroke-width="1.5" stroke-linecap="round" stroke-linejoin="round" role="img" aria-label="A schoolmaster's ruler crossed with a rifle, a blindfold ribbon draped over the crossing">
  <circle cx="100" cy="100" r="94" stroke-width="1"/>
  <circle cx="100" cy="100" r="88" stroke-width="0.5"/>
  <line x1="146" y1="48" x2="98" y2="96" stroke-width="2"/>
  <line x1="148" y1="52" x2="102" y2="98" stroke-width="1"/>
  <line x1="149" y1="45" x2="152" y2="48" stroke-width="1.5"/>
  <path d="M 98 96 C 90 104 82 112 72 122 L 58 140 C 55 144 58 149 63 147 L 74 138 C 82 130 90 122 102 98" stroke-width="2"/>
  <path d="M 90 112 C 92 116 96 118 100 117" stroke-width="1"/>
  <path d="M 64 132 C 68 134 72 138 72 142" stroke-width="0.75"/>
  <polygon points="56,62 65,54 150,143 141,151" stroke-width="1.5"/>
  <g stroke-width="0.75">
    <line x1="66" y1="66" x2="70" y2="62"/>
    <line x1="76" y1="76" x2="80" y2="72"/>
    <line x1="86" y1="87" x2="90" y2="83"/>
    <line x1="107" y1="109" x2="111" y2="105"/>
    <line x1="117" y1="119" x2="121" y2="115"/>
    <line x1="127" y1="130" x2="131" y2="126"/>
    <line x1="137" y1="140" x2="141" y2="136"/>
  </g>
  <g stroke="var(--em-accent, #f2b705)" stroke-width="1.5">
    <path d="M 82 92 C 90 100 108 100 118 93"/>
    <path d="M 82 92 C 79 102 81 113 88 121"/>
    <path d="M 118 93 C 121 103 119 114 112 122"/>
    <path d="M 84 95 C 91 102 107 102 116 96" stroke-width="0.75"/>
  </g>
</svg>
