<svg xmlns="http://www.w3.org/2000/svg" viewBox="0 0 200 200" fill="none" stroke="currentColor" stroke-width="1.5" stroke-linecap="round" stroke-linejoin="round" role="img" aria-label="A domino tile pierced clean through by a bullet, cracks radiating from the hole">
  <circle cx="100" cy="100" r="94" stroke-width="1"/>
  <circle cx="100" cy="100" r="88" stroke-width="0.5"/>
  <rect x="78" y="56" width="44" height="92" rx="6" stroke-width="2"/>
  <line x1="82" y1="102" x2="97" y2="102" stroke-width="1"/>
  <line x1="103" y1="102" x2="118" y2="102" stroke-width="1"/>
  <g fill="currentColor" stroke="none">
    <circle cx="88" cy="68" r="3.2"/>
    <circle cx="100" cy="79" r="3.2"/>
    <circle cx="112" cy="90" r="3.2"/>
    <circle cx="88" cy="116" r="3.2"/>
    <circle cx="112" cy="116" r="3.2"/>
    <circle cx="88" cy="138" r="3.2"/>
    <circle cx="112" cy="138" r="3.2"/>
  </g>
  <circle cx="100" cy="102" r="5.5" stroke="var(--em-accent, #f2b705)" stroke-width="1.5"/>
  <g fill="currentColor" stroke="none">
    <circle cx="99" cy="101" r="0.7"/>
    <circle cx="101.5" cy="103" r="0.7"/>
    <circle cx="98.5" cy="103.5" r="0.7"/>
  </g>
  <g stroke-width="0.75">
    <polyline points="105.5,101 112,98 116,99"/>
    <polyline points="104,106.5 109,112 110,117"/>
    <polyline points="96,107 91,111 90,116"/>
    <polyline points="94.5,101.5 88,99 84,100"/>
    <polyline points="96.5,97.5 93,92 92.5,88"/>
    <polyline points="103.5,97 107,91 107.5,87"/>
  </g>
  <g stroke-width="0.75">
    <line x1="76" y1="158" x2="90" y2="158"/>
    <line x1="96" y1="159.5" x2="112" y2="159.5"/>
    <line x1="118" y1="158" x2="128" y2="158"/>
  </g>
</svg>
