<svg xmlns="http://www.w3.org/2000/svg" viewBox="0 0 200 200" fill="none" stroke="currentColor" stroke-width="1.5" stroke-linecap="round" stroke-linejoin="round" role="img" aria-label="A traveler's bundle on a stick with a river reed">
  <circle cx="100" cy="100" r="94" stroke-width="1"/>
  <circle cx="100" cy="100" r="88" stroke-width="0.5"/>
  <line x1="55" y1="150" x2="148" y2="150" stroke-width="1"/>
  <ellipse cx="128" cy="152" rx="18" ry="2" stroke-width="0.75"/>
  <line x1="72" y1="150" x2="138" y2="68" stroke-width="2"/>
  <path d="M132 78 C122 82 116 92 120 102 C124 112 140 112 144 102 C148 92 142 82 132 78 Z" stroke-width="2"/>
  <path d="M128 84 C126 92 128 100 132 106 M136 84 C138 92 137 100 134 106" stroke-width="0.75"/>
  <path d="M122 92 C126 90 138 90 142 92" stroke-width="0.75"/>
  <path d="M129 72 L124 67 M135 72 L139 66"/>
  <circle cx="132" cy="75" r="3.5" fill="var(--em-accent, #f2b705)" stroke="none"/>
  <path d="M88 150 C92 120 96 92 102 62" stroke-width="1.5"/>
  <path d="M97 88 C104 80 108 70 107 60 C101 68 98 78 97 88 Z"/>
  <path d="M94 112 C88 104 86 94 88 84 C92 94 94 102 94 112 Z"/>
  <ellipse cx="103" cy="58" rx="2.2" ry="4.5"/>
  <path d="M78 146 l6 -6 M84 148 l5 -5" stroke-width="0.75"/>
  <circle cx="112" cy="148" r="0.7" fill="currentColor" stroke="none"/>
  <circle cx="70" cy="148" r="0.7" fill="currentColor" stroke="none"/>
</svg>
