<svg xmlns="http://www.w3.org/2000/svg" viewBox="0 0 200 200" fill="none" stroke="currentColor" stroke-width="1.5" stroke-linecap="round" stroke-linejoin="round" role="img" aria-label="A tavern lantern and a felt flower">
  <circle cx="100" cy="100" r="94" stroke-width="1"/>
  <circle cx="100" cy="100" r="88" stroke-width="0.5"/>
  <line x1="55" y1="150" x2="145" y2="150" stroke-width="1"/>
  <rect x="72" y="96" width="28" height="42" rx="2" stroke-width="2"/>
  <path d="M70 96 L86 82 L102 96 Z" stroke-width="2"/>
  <circle cx="86" cy="76" r="5"/>
  <path d="M79 96 V138 M93 96 V138" stroke-width="0.75"/>
  <path d="M72 117 H100" stroke-width="0.75"/>
  <path d="M78 90 h4 M84 88 h4 M90 90 h4" stroke-width="0.75"/>
  <path d="M86 128 C82 122 84 116 86 112 C88 116 90 122 86 128 Z" stroke-width="1"/>
  <path d="M86 130 V134" stroke-width="0.75"/>
  <path d="M74 138 L72 148 M98 138 L100 148"/>
  <path d="M68 148 H104"/>
  <ellipse cx="86" cy="151" rx="22" ry="2" stroke-width="0.75"/>
  <g fill="var(--em-accent, #f2b705)" stroke="none">
    <circle cx="130" cy="106" r="5"/>
    <circle cx="141" cy="114" r="5"/>
    <circle cx="137" cy="127" r="5"/>
    <circle cx="123" cy="127" r="5"/>
    <circle cx="119" cy="114" r="5"/>
  </g>
  <circle cx="130" cy="117" r="4"/>
  <path d="M130 131 C129 138 128 144 128 150"/>
  <path d="M128 140 C122 136 118 138 116 142 C120 144 125 143 128 140 Z" stroke-width="1"/>
</svg>
