<svg xmlns="http://www.w3.org/2000/svg" viewBox="0 0 200 200" fill="none" stroke="currentColor" stroke-width="1.5" stroke-linecap="round" stroke-linejoin="round" role="img" aria-label="A little gold fish ringed by thirty-two radiating strokes inside a faint chalk circle">
  <circle cx="100" cy="100" r="94" stroke-width="1"/>
  <circle cx="100" cy="100" r="88" stroke-width="0.5"/>
  <circle cx="100" cy="100" r="70" stroke-width="1" stroke-dasharray="3 3"/>
  <g>
    <line x1="150.0" y1="100.0" x2="162.0" y2="100.0"/>
    <line x1="149.0" y1="109.8" x2="160.8" y2="112.1"/>
    <line x1="146.2" y1="119.1" x2="157.3" y2="123.7"/>
    <line x1="141.6" y1="127.8" x2="151.6" y2="134.4"/>
    <line x1="135.4" y1="135.4" x2="143.8" y2="143.8"/>
    <line x1="127.8" y1="141.6" x2="134.4" y2="151.6"/>
    <line x1="119.1" y1="146.2" x2="123.7" y2="157.3"/>
    <line x1="109.8" y1="149.0" x2="112.1" y2="160.8"/>
    <line x1="100.0" y1="150.0" x2="100.0" y2="162.0"/>
    <line x1="90.2" y1="149.0" x2="87.9" y2="160.8"/>
    <line x1="80.9" y1="146.2" x2="76.3" y2="157.3"/>
    <line x1="72.2" y1="141.6" x2="65.6" y2="151.6"/>
    <line x1="64.6" y1="135.4" x2="56.2" y2="143.8"/>
    <line x1="58.4" y1="127.8" x2="48.4" y2="134.4"/>
    <line x1="53.8" y1="119.1" x2="42.7" y2="123.7"/>
    <line x1="51.0" y1="109.8" x2="39.2" y2="112.1"/>
    <line x1="50.0" y1="100.0" x2="38.0" y2="100.0"/>
    <line x1="51.0" y1="90.2" x2="39.2" y2="87.9"/>
    <line x1="53.8" y1="80.9" x2="42.7" y2="76.3"/>
    <line x1="58.4" y1="72.2" x2="48.4" y2="65.6"/>
    <line x1="64.6" y1="64.6" x2="56.2" y2="56.2"/>
    <line x1="72.2" y1="58.4" x2="65.6" y2="48.4"/>
    <line x1="80.9" y1="53.8" x2="76.3" y2="42.7"/>
    <line x1="90.2" y1="51.0" x2="87.9" y2="39.2"/>
    <line x1="100.0" y1="50.0" x2="100.0" y2="38.0"/>
    <line x1="109.8" y1="51.0" x2="112.1" y2="39.2"/>
    <line x1="119.1" y1="53.8" x2="123.7" y2="42.7"/>
    <line x1="127.8" y1="58.4" x2="134.4" y2="48.4"/>
    <line x1="135.4" y1="64.6" x2="143.8" y2="56.2"/>
    <line x1="141.6" y1="72.2" x2="151.6" y2="65.6"/>
    <line x1="146.2" y1="80.9" x2="157.3" y2="76.3"/>
    <line x1="149.0" y1="90.2" x2="160.8" y2="87.9"/>
  </g>
  <path d="M 64 100 C 76 88 98 84 114 94 C 120 97 124 99 128 100 C 124 101 120 103 114 106 C 98 116 76 112 64 100 Z M 128 100 C 134 94 138 90 144 86 C 141 94 141 106 144 114 C 138 110 134 106 128 100 Z" fill="var(--em-accent, #f2b705)" stroke-width="2"/>
  <circle cx="78" cy="98" r="1.6" fill="currentColor" stroke="none"/>
  <path d="M 86 94 C 88 98 88 102 86 106" stroke-width="0.75"/>
  <path d="M 95 92 C 97 97 97 103 95 108" stroke-width="0.75"/>
  <path d="M 104 92 C 106 97 106 103 104 108" stroke-width="0.75"/>
  <path d="M 113 94 C 114 98 114 102 113 106" stroke-width="0.75"/>
</svg>
