<svg xmlns="http://www.w3.org/2000/svg" viewBox="0 0 200 200" fill="none" stroke="currentColor" stroke-width="1.5" stroke-linecap="round" stroke-linejoin="round" role="img" aria-label="A cup of hot chocolate levitating above its saucer">
  <circle cx="100" cy="100" r="94" stroke-width="1"/>
  <circle cx="100" cy="100" r="88" stroke-width="0.5"/>
  <line x1="60" y1="146" x2="140" y2="146" stroke-width="1"/>
  <ellipse cx="100" cy="140" rx="26" ry="6" stroke-width="2"/>
  <ellipse cx="100" cy="139" rx="18" ry="3.5" stroke-width="0.75"/>
  <path d="M78 142 C82 145 118 145 122 142" stroke-width="0.75"/>
  <ellipse cx="100" cy="88" rx="17" ry="5" stroke-width="2"/>
  <path d="M83 88 C83 102 87 110 100 110 C113 110 117 102 117 88" stroke-width="2"/>
  <path d="M94 110 C94 113 106 113 106 110" stroke-width="1"/>
  <path d="M117 92 C126 92 127 102 117 103"/>
  <ellipse cx="100" cy="89" rx="13" ry="3.2" fill="var(--em-accent, #f2b705)" stroke="none"/>
  <path d="M94 78 C92 72 96 68 94 62 M106 78 C108 72 104 68 106 62" stroke-width="0.75"/>
  <path d="M100 76 C99 72 101 69 100 65" stroke-width="0.75"/>
  <path d="M88 118 V126 M100 121 V129 M112 118 V126" stroke-width="0.75"/>
  <path d="M86 102 C88 106 92 108 96 109" stroke-width="0.75"/>
  <circle cx="70" cy="144" r="0.7" fill="currentColor" stroke="none"/>
  <circle cx="130" cy="144" r="0.7" fill="currentColor" stroke="none"/>
</svg>
