<svg xmlns="http://www.w3.org/2000/svg" viewBox="0 0 200 200" fill="none" stroke="currentColor" stroke-width="1.5" stroke-linecap="round" stroke-linejoin="round" role="img" aria-label="A confessional lattice marked with a cross of ash">
  <circle cx="100" cy="100" r="94" stroke-width="1"/>
  <circle cx="100" cy="100" r="88" stroke-width="0.5"/>
  <path d="M68 146 L68 96 C68 68 132 68 132 96 L132 146 Z" stroke-width="2"/>
  <path d="M73 141 L73 97 C73 74 127 74 127 97 L127 141" stroke-width="0.75"/>
  <path d="M62 146 H138" stroke-width="2"/>
  <path d="M66 152 H134" stroke-width="1"/>
  <path d="M70 149 l4 0 M126 149 l4 0" stroke-width="0.75"/>
  <path d="M73 108 L106 141 M73 126 L88 141 M78 88 L127 137 M96 76 L127 107 M114 74 L127 87" stroke-width="0.75"/>
  <path d="M127 108 L94 141 M127 126 L112 141 M122 88 L73 137 M104 76 L73 107 M86 74 L73 87" stroke-width="0.75"/>
  <g stroke="var(--em-accent, #f2b705)">
    <path d="M100 99 V117 M92 106 H108"/>
  </g>
  <circle cx="80" cy="150" r="0.7" fill="currentColor" stroke="none"/>
  <circle cx="120" cy="150" r="0.7" fill="currentColor" stroke="none"/>
</svg>
