<svg xmlns="http://www.w3.org/2000/svg" viewBox="0 0 200 200" fill="none" stroke="currentColor" stroke-width="1.5" stroke-linecap="round" stroke-linejoin="round" role="img" aria-label="A chamber pot with a crowned crest on a lace doily">
  <circle cx="100" cy="100" r="94" stroke-width="1"/>
  <circle cx="100" cy="100" r="88" stroke-width="0.5"/>
  <ellipse cx="100" cy="146" rx="46" ry="7" stroke-width="1"/>
  <path d="M56 148 q5 4 10 1 q5 4 10 1 q5 4 10 1 q5 4 10 1 q5 3 10 0 q5 3 10 -1 q5 3 10 -1 q5 3 10 -1 q5 3 8 -2" stroke-width="0.75"/>
  <circle cx="70" cy="146" r="0.7" fill="currentColor" stroke="none"/>
  <circle cx="85" cy="149" r="0.7" fill="currentColor" stroke="none"/>
  <circle cx="115" cy="149" r="0.7" fill="currentColor" stroke="none"/>
  <circle cx="130" cy="146" r="0.7" fill="currentColor" stroke="none"/>
  <ellipse cx="100" cy="92" rx="32" ry="8" stroke-width="2"/>
  <ellipse cx="100" cy="92" rx="26" ry="5.5" stroke-width="0.75"/>
  <path d="M68 92 C66 112 74 130 82 138 C94 142 106 142 118 138 C126 130 134 112 132 92" stroke-width="2"/>
  <path d="M82 138 C88 141 112 141 118 138"/>
  <path d="M132 100 C144 100 146 114 134 118" stroke-width="2"/>
  <path d="M120 104 C124 110 124 122 120 130 M126 102 C130 110 130 120 126 128" stroke-width="0.75"/>
  <path d="M92 108 L108 108 L108 118 C108 124 104 128 100 129 C96 128 92 124 92 118 Z" fill="var(--em-accent, #f2b705)" stroke="none"/>
  <path d="M93 104 L95 99 L100 103 L105 98 L107 104" stroke-width="0.75"/>
  <path d="M92 106 H108" stroke-width="0.75"/>
</svg>
