<svg xmlns="http://www.w3.org/2000/svg" viewBox="0 0 200 200" fill="none" stroke="currentColor" stroke-width="1.5" stroke-linecap="round" stroke-linejoin="round" role="img" aria-label="A strapped suitcase with a thick book lashed on top, a paper plane departing">
  <circle cx="100" cy="100" r="94" stroke-width="1"/>
  <circle cx="100" cy="100" r="88" stroke-width="0.5"/>
  <line x1="55" y1="150" x2="145" y2="150" stroke-width="1"/>
  <ellipse cx="101" cy="146" rx="40" ry="3" stroke-width="0.75"/>
  <rect x="64" y="98" width="74" height="44" rx="6" stroke-width="2"/>
  <path d="M110 98 C110 90 126 90 126 98" stroke-width="2"/>
  <path d="M68 104 A6 6 0 0 1 70 100 M134 104 A6 6 0 0 0 132 100 M68 136 A6 6 0 0 0 70 140 M134 136 A6 6 0 0 1 132 140" stroke-width="0.75"/>
  <circle cx="124" cy="128" r="5.5" stroke-width="0.75"/>
  <path d="M120 126 l8 4" stroke-width="0.75"/>
  <path d="M68 120 H84 M90 120 H136" stroke-width="0.75"/>
  <rect x="66" y="85" width="38" height="13" rx="1.5" stroke-width="2"/>
  <path d="M70 89 H100 M70 92 H100" stroke-width="0.75"/>
  <path d="M70 85 V98" stroke-width="0.75"/>
  <path d="M80 85 V142 M88 85 V142" stroke-width="1.5"/>
  <rect x="79" y="116" width="10" height="7" stroke-width="1.5"/>
  <path d="M84 116 V123" stroke-width="0.75"/>
  <path d="M124 66 L148 54 L138 70 L133 67 Z" fill="var(--em-accent, #f2b705)" stroke="none"/>
  <path d="M148 54 L136 66" stroke-width="0.75"/>
  <circle cx="60" cy="148" r="0.7" fill="currentColor" stroke="none"/>
  <circle cx="142" cy="148" r="0.7" fill="currentColor" stroke="none"/>
</svg>
