<svg xmlns="http://www.w3.org/2000/svg" viewBox="0 0 200 200" fill="none" stroke="currentColor" stroke-width="1.5" stroke-linecap="round" stroke-linejoin="round" role="img" aria-label="A telegraph key beside a chess knight">
  <circle cx="100" cy="100" r="94" stroke-width="1"/>
  <circle cx="100" cy="100" r="88" stroke-width="0.5"/>
  <line x1="52" y1="150" x2="150" y2="150" stroke-width="1"/>
  <path d="M56 142 L104 142 L100 150 L60 150 Z" stroke-width="2"/>
  <path d="M68 142 V131"/>
  <circle cx="68" cy="129" r="2.5"/>
  <line x1="62" y1="127" x2="94" y2="121" stroke-width="2"/>
  <circle cx="96" cy="120" r="4"/>
  <path d="M80 141 C80 137 84 137 84 141 M84 141 C84 137 88 137 88 141" stroke-width="0.75"/>
  <path d="M96 142 V138"/>
  <circle cx="96" cy="135" r="2.5" fill="var(--em-accent, #f2b705)" stroke="none"/>
  <path d="M114 150 L146 150 L143 141 L117 141 Z" stroke-width="2"/>
  <path d="M121 141 C121 128 124 116 132 108 C127 104 126 97 130 90 C132 86 137 82 142 85 L144 91 C148 94 148 100 144 103 L140 106 C142 116 141 130 143 141" stroke-width="2"/>
  <path d="M133 100 L137 97 M131 106 L136 103 M130 112 L135 110 M129 119 L134 117" stroke-width="0.75"/>
  <path d="M137 84 L139 79 L142 84"/>
  <circle cx="137" cy="91" r="0.8" fill="currentColor" stroke="none"/>
  <circle cx="142" cy="94" r="0.7" fill="currentColor" stroke="none"/>
  <path d="M118 146 H142" stroke-width="0.75"/>
</svg>
