<svg xmlns="http://www.w3.org/2000/svg" viewBox="0 0 200 200" fill="none" stroke="currentColor" stroke-width="1.5" stroke-linecap="round" stroke-linejoin="round" role="img" aria-label="A full-rigged ship over waves, a tattooed anchor beneath, a rope threading its ring">
  <circle cx="100" cy="100" r="94" stroke-width="1"/>
  <circle cx="100" cy="100" r="88" stroke-width="0.5"/>
  <path d="M 56 84 C 68 93 132 93 144 84 L 137 72 L 63 72 Z" stroke-width="2"/>
  <path d="M 62 79 C 78 85 122 85 138 79" stroke-width="0.5"/>
  <line x1="80" y1="72" x2="80" y2="40" stroke-width="1.5"/>
  <line x1="100" y1="72" x2="100" y2="32" stroke-width="1.5"/>
  <line x1="120" y1="72" x2="120" y2="42" stroke-width="1.5"/>
  <rect x="68" y="44" width="24" height="15" rx="1" stroke-width="1.5"/>
  <rect x="86" y="36" width="28" height="17" rx="1" stroke-width="1.5"/>
  <rect x="110" y="46" width="20" height="13" rx="1" stroke-width="1.5"/>
  <g stroke-width="0.5">
    <line x1="80" y1="40" x2="60" y2="72"/>
    <line x1="100" y1="32" x2="140" y2="70"/>
    <line x1="120" y1="42" x2="139" y2="71"/>
    <line x1="100" y1="32" x2="62" y2="70"/>
  </g>
  <path d="M 100 32 L 108 35 L 100 38" stroke-width="1"/>
  <g stroke-width="0.75">
    <path d="M 46 100 C 54 96 62 104 70 100 C 78 96 86 104 94 100"/>
    <path d="M 106 100 C 114 96 122 104 130 100 C 138 96 146 104 154 100"/>
    <path d="M 66 110 C 74 106 82 114 90 110 C 98 106 106 114 114 110"/>
    <path d="M 96 119 C 104 115 112 123 120 119"/>
  </g>
  <circle cx="100" cy="127" r="4" stroke-width="1.5"/>
  <line x1="100" y1="131" x2="100" y2="160" stroke-width="2"/>
  <line x1="90" y1="136" x2="110" y2="136" stroke-width="2"/>
  <path d="M 100 160 C 92 160 84 154 82 145 L 78 149 M 82 145 L 88 146" stroke-width="2"/>
  <path d="M 100 160 C 108 160 116 154 118 145 L 122 149 M 118 145 L 112 146" stroke-width="2"/>
  <g stroke-width="0.5">
    <line x1="83" y1="128" x2="87" y2="126"/>
    <line x1="82" y1="132" x2="86" y2="131"/>
    <line x1="114" y1="127" x2="118" y2="125"/>
    <line x1="115" y1="131" x2="119" y2="130"/>
    <line x1="93" y1="150" x2="96" y2="153"/>
    <line x1="105" y1="152" x2="108" y2="149"/>
  </g>
  <path d="M 84 120 C 92 128 100 112 110 121 C 106 126 96 128 90 124" stroke="var(--em-accent, #f2b705)" stroke-width="1.5"/>
</svg>
