<svg xmlns="http://www.w3.org/2000/svg" viewBox="0 0 200 200" fill="none" stroke="currentColor" stroke-width="1.5" stroke-linecap="round" stroke-linejoin="round" role="img" aria-label="A mechanic's wrench with yellow butterflies rising from it">
  <circle cx="100" cy="100" r="94" stroke-width="1"/>
  <circle cx="100" cy="100" r="88" stroke-width="0.5"/>
  <line x1="55" y1="150" x2="145" y2="150" stroke-width="1"/>
  <ellipse cx="92" cy="146" rx="30" ry="3" stroke-width="0.75"/>
  <path d="M72 144 C68 140 68 136 72 132 L102 96 L112 106 L80 142 C78 146 74 146 72 144 Z" stroke-width="2"/>
  <path d="M102 96 C96 88 98 78 106 72 C110 70 114 70 118 72 L112 80 L118 86 L126 80 C128 86 126 92 120 97 C114 102 107 101 102 96 Z" stroke-width="2"/>
  <path d="M80 132 l6 6 M86 126 l6 6 M92 120 l6 6" stroke-width="0.75"/>
  <circle cx="109" cy="88" r="2" stroke-width="0.75"/>
  <g fill="var(--em-accent, #f2b705)" stroke="none">
    <path d="M128 64 c-2 -3 -7 -4 -8 -1 c-1 3 4 5 8 3 c4 2 9 0 8 -3 c-1 -3 -6 -2 -8 1 z"/>
    <path d="M145 84 c-1.6 -2.4 -5.6 -3.2 -6.4 -0.8 c-0.8 2.4 3.2 4 6.4 2.4 c3.2 1.6 7.2 0 6.4 -2.4 c-0.8 -2.4 -4.8 -1.6 -6.4 0.8 z"/>
    <path d="M118 46 c-1.6 -2.4 -5.6 -3.2 -6.4 -0.8 c-0.8 2.4 3.2 4 6.4 2.4 c3.2 1.6 7.2 0 6.4 -2.4 c-0.8 -2.4 -4.8 -1.6 -6.4 0.8 z"/>
    <path d="M140 46 c-1.2 -1.8 -4.2 -2.4 -4.8 -0.6 c-0.6 1.8 2.4 3 4.8 1.8 c2.4 1.2 5.4 0 4.8 -1.8 c-0.6 -1.8 -3.6 -1.2 -4.8 0.6 z"/>
    <path d="M132 104 c-1.2 -1.8 -4.2 -2.4 -4.8 -0.6 c-0.6 1.8 2.4 3 4.8 1.8 c2.4 1.2 5.4 0 4.8 -1.8 c-0.6 -1.8 -3.6 -1.2 -4.8 0.6 z"/>
  </g>
  <circle cx="68" cy="148" r="0.7" fill="currentColor" stroke="none"/>
  <circle cx="118" cy="148" r="0.7" fill="currentColor" stroke="none"/>
</svg>
