<svg xmlns="http://www.w3.org/2000/svg" viewBox="0 0 200 200" fill="none" stroke="currentColor" stroke-width="1.5" stroke-linecap="round" stroke-linejoin="round" role="img" aria-label="A clavichord with its lid propped open and a single butterfly resting on the keys">
  <circle cx="100" cy="100" r="94" stroke-width="1"/>
  <circle cx="100" cy="100" r="88" stroke-width="0.5"/>
  <polygon points="52,98 140,90 152,102 64,110" stroke-width="2"/>
  <polygon points="64,110 152,102 152,130 64,138" stroke-width="2"/>
  <polygon points="52,98 140,90 128,60 42,70" stroke-width="1.5"/>
  <path d="M 50 96 C 76 89 108 85 136 82" stroke-width="0.5"/>
  <line x1="118" y1="64" x2="124" y2="90" stroke-width="1"/>
  <g stroke-width="0.75">
    <line x1="72" y1="110.5" x2="72" y2="121"/>
    <line x1="79" y1="110" x2="79" y2="120.5"/>
    <line x1="86" y1="109.5" x2="86" y2="120"/>
    <line x1="93" y1="108.8" x2="93" y2="119.4"/>
    <line x1="100" y1="108.2" x2="100" y2="118.8"/>
    <line x1="107" y1="107.6" x2="107" y2="118.2"/>
    <line x1="114" y1="107" x2="114" y2="117.6"/>
    <line x1="121" y1="106.4" x2="121" y2="117"/>
    <line x1="128" y1="105.8" x2="128" y2="116.4"/>
    <line x1="135" y1="105.2" x2="135" y2="115.8"/>
    <line x1="142" y1="104.6" x2="142" y2="115.2"/>
  </g>
  <g fill="currentColor" stroke="none">
    <rect x="74.5" y="110.2" width="3" height="6"/>
    <rect x="88.5" y="109" width="3" height="6"/>
    <rect x="102.5" y="107.8" width="3" height="6"/>
    <rect x="116.5" y="106.7" width="3" height="6"/>
    <rect x="130.5" y="105.5" width="3" height="6"/>
  </g>
  <line x1="68" y1="138" x2="66" y2="160" stroke-width="1.5"/>
  <line x1="148" y1="130" x2="150" y2="152" stroke-width="1.5"/>
  <line x1="84" y1="136.5" x2="83" y2="158" stroke-width="1.5"/>
  <line x1="132" y1="131.5" x2="133" y2="153" stroke-width="1.5"/>
  <g stroke-width="0.75">
    <line x1="58" y1="162" x2="76" y2="162"/>
    <line x1="124" y1="155" x2="142" y2="155"/>
  </g>
  <path d="M 90 103.5 C 87 99.5 88 95.5 91.5 95 C 94 94.7 95.5 97 95 100.5 C 97.5 98 100.5 98 101.5 100.5 C 102.5 103 100.5 105.5 96.5 105.5 L 93 105.5 Z" fill="var(--em-accent, #f2b705)" stroke="none"/>
  <path d="M 93.5 96 L 91.5 92 M 95 96 L 96 92" stroke-width="0.5"/>
</svg>
