<svg xmlns="http://www.w3.org/2000/svg" viewBox="0 0 200 200" fill="none" stroke="currentColor" stroke-width="1.5" stroke-linecap="round" stroke-linejoin="round" role="img" aria-label="A banana weighed on a jeweler's balance beside calipers">
  <circle cx="100" cy="100" r="94" stroke-width="1"/>
  <circle cx="100" cy="100" r="88" stroke-width="0.5"/>
  <line x1="55" y1="150" x2="148" y2="150" stroke-width="1"/>
  <path d="M96 148 H112 L108 140 H100 Z" stroke-width="2"/>
  <line x1="104" y1="140" x2="104" y2="78" stroke-width="2"/>
  <line x1="66" y1="72" x2="142" y2="72" stroke-width="2"/>
  <path d="M104 66 L108 72 L104 78 L100 72 Z"/>
  <line x1="104" y1="78" x2="104" y2="88" stroke-width="0.75"/>
  <path d="M100 84 H108" stroke-width="0.75"/>
  <path d="M70 72 L60 96 M70 72 L80 96" stroke-width="0.75"/>
  <path d="M56 96 C58 105 82 105 84 96" stroke-width="1.5"/>
  <path d="M56 96 H84" stroke-width="0.75"/>
  <path d="M56 92 C60 84 74 80 84 86 C86 88 84 90 80 90 C70 88 62 90 58 94 Z" fill="var(--em-accent, #f2b705)" stroke="currentColor" stroke-width="1.5"/>
  <path d="M84 86 l4 -2" stroke-width="1.5"/>
  <path d="M138 72 L128 96 M138 72 L148 96" stroke-width="0.75"/>
  <path d="M124 96 C126 105 150 105 152 96" stroke-width="1.5"/>
  <path d="M124 96 H152" stroke-width="0.75"/>
  <rect x="131" y="87" width="7" height="8" stroke-width="1"/>
  <rect x="140" y="89" width="5" height="6" stroke-width="1"/>
  <circle cx="76" cy="126" r="3" stroke-width="1"/>
  <path d="M70 132 L78 150 M84 130 L79 150" stroke-width="1.5"/>
  <path d="M72 124 l-4 -4" stroke-width="1"/>
  <circle cx="120" cy="148" r="0.7" fill="currentColor" stroke="none"/>
  <circle cx="92" cy="148" r="0.7" fill="currentColor" stroke="none"/>
</svg>
