<svg xmlns="http://www.w3.org/2000/svg" viewBox="0 0 200 200" fill="none" stroke="currentColor" stroke-width="1.5" stroke-linecap="round" stroke-linejoin="round" role="img" aria-label="A raffle wheel ringed by multiplying rabbits">
  <circle cx="100" cy="100" r="94" stroke-width="1"/>
  <circle cx="100" cy="100" r="88" stroke-width="0.5"/>
  <line x1="52" y1="150" x2="152" y2="150" stroke-width="1"/>
  <path d="M84 150 L100 110 L116 150"/>
  <circle cx="100" cy="98" r="36" stroke-width="2"/>
  <circle cx="100" cy="98" r="31" stroke-width="0.75"/>
  <circle cx="100" cy="98" r="4"/>
  <path d="M100 67 V129 M69 98 H131 M78 76 L122 120 M122 76 L78 120" stroke-width="0.75"/>
  <path d="M100 60 V64 M100 132 V136 M62 98 H66 M134 98 H138 M73 71 l3 3 M127 71 l-3 3 M73 125 l3 -3 M127 125 l-3 -3" stroke-width="0.75"/>
  <path d="M94 52 L106 52 L100 62 Z" fill="var(--em-accent, #f2b705)" stroke="none"/>
  <ellipse cx="60" cy="146" rx="5.5" ry="3.8"/>
  <circle cx="65.5" cy="143" r="2.6"/>
  <path d="M65 140 c0 -3 0.5 -4 1 -5 M67 140 c1 -3 2 -4 3 -4" stroke-width="0.75"/>
  <circle cx="54.5" cy="144" r="0.8" fill="currentColor" stroke="none"/>
  <ellipse cx="74" cy="146" rx="5.5" ry="3.8"/>
  <circle cx="79.5" cy="143" r="2.6"/>
  <path d="M79 140 c0 -3 0.5 -4 1 -5 M81 140 c1 -3 2 -4 3 -4" stroke-width="0.75"/>
  <circle cx="68.5" cy="144" r="0.8" fill="currentColor" stroke="none"/>
  <ellipse cx="126" cy="146" rx="5.5" ry="3.8"/>
  <circle cx="131.5" cy="143" r="2.6"/>
  <path d="M131 140 c0 -3 0.5 -4 1 -5 M133 140 c1 -3 2 -4 3 -4" stroke-width="0.75"/>
  <circle cx="120.5" cy="144" r="0.8" fill="currentColor" stroke="none"/>
  <ellipse cx="139" cy="146" rx="5.5" ry="3.8"/>
  <circle cx="144.5" cy="143" r="2.6"/>
  <path d="M144 140 c0 -3 0.5 -4 1 -5 M146 140 c1 -3 2 -4 3 -4" stroke-width="0.75"/>
  <circle cx="133.5" cy="144" r="0.8" fill="currentColor" stroke="none"/>
  <ellipse cx="150" cy="139" rx="4.5" ry="3.1"/>
  <circle cx="154.5" cy="136.5" r="2.1"/>
  <path d="M154 134.5 c0 -2.5 0.4 -3.3 0.8 -4 M155.6 134.5 c0.8 -2.5 1.6 -3.3 2.4 -3.3" stroke-width="0.75"/>
</svg>
