<svg xmlns="http://www.w3.org/2000/svg" viewBox="0 0 200 200" fill="none" stroke="currentColor" stroke-width="1.5" stroke-linecap="round" stroke-linejoin="round" role="img" aria-label="A canvas sack tied with cord, spilling a trickle of earth beside a worn spoon">
  <circle cx="100" cy="100" r="94" stroke-width="1"/>
  <circle cx="100" cy="100" r="88" stroke-width="0.5"/>
  <path d="M 78 96 C 68 104 62 120 63 134 C 64 146 74 153 88 153 C 101 153 109 147 111 136 C 113 124 109 108 101 98" stroke-width="2"/>
  <path d="M 78 96 C 80 91 84 88 89 88 C 94 88 99 91 101 98" stroke-width="2"/>
  <path d="M 76 98 C 74 96 75 93 78 92 M 103 100 C 105 97 104 94 101 93" stroke-width="1"/>
  <path d="M 77 95 C 84 99 96 99 102 96" stroke-width="1.5"/>
  <path d="M 78 99 C 85 103 95 103 102 100" stroke-width="1"/>
  <circle cx="86" cy="101" r="2.6" stroke-width="1"/>
  <circle cx="92" cy="102.5" r="2.2" stroke-width="1"/>
  <g stroke-width="0.75">
    <path d="M 74 112 C 72 122 72 134 75 144"/>
    <path d="M 86 106 C 84 118 84 134 87 148"/>
    <path d="M 100 110 C 103 120 104 132 102 142"/>
  </g>
  <g fill="var(--em-accent, #f2b705)" stroke="none">
    <circle cx="110" cy="122" r="1.4"/>
    <circle cx="114" cy="129" r="1.2"/>
    <circle cx="117" cy="136" r="1.5"/>
    <circle cx="120" cy="143" r="1.2"/>
    <circle cx="122" cy="150" r="1.4"/>
    <path d="M 116 155.5 C 119 152.5 125 152.5 128 155.5 C 124 157 120 157 116 155.5 Z"/>
  </g>
  <path d="M 108 116 C 109.5 117.5 110.5 119 111 121" stroke-width="0.75"/>
  <path d="M 134 151 C 131 148 131 143 135 140.5 C 139 138 144 139 145.5 143 C 147 146.5 144 150.5 140 151.5 C 138 152 136 152 134 151 Z" stroke-width="1.5"/>
  <line x1="145" y1="141" x2="158" y2="127" stroke-width="1.5"/>
  <path d="M 137 143 C 138.5 142 140.5 142 142 143" stroke-width="0.5"/>
  <line x1="52" y1="155" x2="82" y2="155" stroke-width="1.5"/>
  <line x1="94" y1="155" x2="112" y2="155" stroke-width="1.5"/>
  <line x1="132" y1="155" x2="152" y2="155" stroke-width="1.5"/>
</svg>
