<svg xmlns="http://www.w3.org/2000/svg" viewBox="0 0 200 200" fill="none" stroke="currentColor" stroke-width="1.5" stroke-linecap="round" stroke-linejoin="round" role="img" aria-label="Two bedsheets billowing upward toward a plain sun disk">
  <circle cx="100" cy="100" r="94" stroke-width="1"/>
  <circle cx="100" cy="100" r="88" stroke-width="0.5"/>
  <path d="M52 140 C62 132 74 126 88 122 L104 100 C98 94 90 92 82 94 L58 106 C50 116 48 130 52 140 Z" stroke-width="2"/>
  <path d="M60 128 C70 121 80 116 92 112" stroke-width="0.75"/>
  <path d="M57 117 C66 110 76 106 86 103" stroke-width="0.75"/>
  <path d="M52 140 C48 148 47 156 50 164" stroke-width="1"/>
  <path d="M102 92 C110 84 120 78 132 74 L142 56 C136 52 129 51 122 54 L106 64 C100 72 99 82 102 92 Z" stroke-width="2"/>
  <path d="M108 80 C116 74 124 70 132 67" stroke-width="0.75"/>
  <path d="M102 92 C99 98 98 104 100 110" stroke-width="1"/>
  <circle cx="150" cy="42" r="11" fill="var(--em-accent, #f2b705)" stroke="none"/>
  <circle cx="150" cy="42" r="11" stroke-width="1"/>
  <line x1="66" y1="158" x2="68" y2="148" stroke-width="0.75"/>
  <line x1="84" y1="164" x2="86" y2="154" stroke-width="0.75"/>
  <line x1="102" y1="160" x2="104" y2="150" stroke-width="0.75"/>
  <line x1="118" y1="126" x2="120" y2="116" stroke-width="0.75"/>
</svg>
