<svg xmlns="http://www.w3.org/2000/svg" viewBox="0 0 200 200" fill="none" stroke="currentColor" stroke-width="1.5" stroke-linecap="round" stroke-linejoin="round" role="img" aria-label="Seventeen small ash crosses in a loose arc, one set slightly apart">
  <circle cx="100" cy="100" r="94" stroke-width="1"/>
  <circle cx="100" cy="100" r="88" stroke-width="0.5"/>
  <g>
    <line x1="41.7" y1="128" x2="41.7" y2="137"/>
    <line x1="38.7" y1="131" x2="44.7" y2="131"/>
    <line x1="38.9" y1="118" x2="37.9" y2="127"/>
    <line x1="35.4" y1="121.5" x2="41.4" y2="121"/>
    <line x1="38.5" y1="108" x2="38.5" y2="117"/>
    <line x1="35.5" y1="111" x2="41.5" y2="111"/>
    <line x1="42.7" y1="98.3" x2="41.7" y2="107.3"/>
    <line x1="39.2" y1="101.8" x2="45.2" y2="101.3"/>
    <line x1="49.2" y1="89.4" x2="49.2" y2="98.4"/>
    <line x1="46.2" y1="92.4" x2="52.2" y2="92.4"/>
    <line x1="59.1" y1="81.9" x2="60.1" y2="90.9"/>
    <line x1="56.6" y1="85.4" x2="62.6" y2="84.9"/>
    <line x1="71.4" y1="76.2" x2="71.4" y2="85.2"/>
    <line x1="68.4" y1="79.2" x2="74.4" y2="79.2"/>
    <line x1="85.3" y1="72.7" x2="84.3" y2="81.7"/>
    <line x1="81.8" y1="76.2" x2="87.8" y2="75.7"/>
    <line x1="100" y1="71.5" x2="100" y2="80.5"/>
    <line x1="97" y1="74.5" x2="103" y2="74.5"/>
    <line x1="114.7" y1="72.7" x2="115.7" y2="81.7"/>
    <line x1="112.2" y1="76.2" x2="118.2" y2="75.7"/>
    <line x1="128.6" y1="76.2" x2="128.6" y2="85.2"/>
    <line x1="125.6" y1="79.2" x2="131.6" y2="79.2"/>
    <line x1="140.9" y1="81.9" x2="139.9" y2="90.9"/>
    <line x1="137.4" y1="85.4" x2="143.4" y2="84.9"/>
    <line x1="150.8" y1="89.4" x2="150.8" y2="98.4"/>
    <line x1="147.8" y1="92.4" x2="153.8" y2="92.4"/>
    <line x1="157.8" y1="98.3" x2="158.8" y2="107.3"/>
    <line x1="155.3" y1="101.8" x2="161.3" y2="101.3"/>
    <line x1="161.5" y1="108" x2="161.5" y2="117"/>
    <line x1="158.5" y1="111" x2="164.5" y2="111"/>
    <line x1="161.6" y1="118" x2="160.6" y2="127"/>
    <line x1="158.1" y1="121.5" x2="164.1" y2="121"/>
  </g>
  <g stroke="var(--em-accent, #f2b705)">
    <line x1="138" y1="146" x2="140" y2="155"/>
    <line x1="135.5" y1="149.5" x2="141.5" y2="148.5"/>
  </g>
  <g stroke-width="0.75">
    <line x1="36" y1="140" x2="48" y2="141"/>
    <line x1="60" y1="94" x2="70" y2="89"/>
    <line x1="94" y1="84" x2="106" y2="84"/>
    <line x1="130" y1="89" x2="140" y2="94"/>
    <line x1="152" y1="140" x2="162" y2="139"/>
    <line x1="133" y1="158" x2="145" y2="159"/>
  </g>
</svg>
