<svg xmlns="http://www.w3.org/2000/svg" viewBox="0 0 200 200" fill="none" stroke="currentColor" stroke-width="1.5" stroke-linecap="round" stroke-linejoin="round" role="img" aria-label="A lit candle ringed by a procession of tiny candy roosters and fishes">
  <circle cx="100" cy="100" r="94" stroke-width="1"/>
  <circle cx="100" cy="100" r="88" stroke-width="0.5"/>
  <path d="M 94 97 C 94 96 95 95 96 95 L 104 95 C 105 95 106 96 106 97 L 105.2 140 L 94.8 140 Z" stroke-width="2"/>
  <path d="M 95.5 104 C 94.5 110 95 118 94.8 126" stroke-width="0.75"/>
  <path d="M 96 104 C 97 107 96.6 112 97 116 C 97.6 120 96.8 124 97 127 C 97.1 130 98 132 97.6 134" stroke-width="0.5"/>
  <line x1="100" y1="90" x2="100" y2="95"/>
  <path d="M 100 76 C 104.5 82.5 103.5 88 100 91 C 96.5 88 95.5 82.5 100 76 Z" fill="var(--em-accent, #f2b705)" stroke="none"/>
  <path d="M 86 142 C 86 140 88 140 90 140 L 110 140 C 112 140 114 140 114 142 C 114 145 108 147 100 147 C 92 147 86 145 86 142 Z" stroke-width="1.5"/>
  <circle cx="119" cy="141" r="4" stroke-width="1.5"/>
  <g stroke-width="1">
    <path d="M 145 120 C 143 116 146 112 150 112 C 154 112 157 115 156 119 C 155.5 121.5 153 123 150 123 Z"/>
    <path d="M 145 120 C 141 119 138 115 139 111"/>
    <path d="M 150 110 L 149 107 M 152 110 L 152.5 107"/>
    <line x1="148" y1="123" x2="148" y2="126"/>
    <line x1="153" y1="123" x2="153" y2="126"/>
    <path d="M 113 148.8 C 117 145.8 123 145.8 126 148.8 C 123 151.8 117 151.8 113 148.8 Z M 126 148.8 L 130 145.3 C 129.4 147.8 129.4 149.8 130 152.3 Z"/>
    <circle cx="116.5" cy="148.2" r="0.7" fill="currentColor" stroke="none"/>
    <path d="M 74 152.8 C 72 148.8 75 144.8 79 144.8 C 83 144.8 86 147.8 85 151.8 C 84.5 154.3 82 155.8 79 155.8 Z"/>
    <path d="M 74 152.8 C 70 151.8 67 147.8 68 143.8"/>
    <path d="M 79 142.8 L 78 139.8 M 81 142.8 L 81.5 139.8"/>
    <path d="M 42.2 124 C 46.2 121 52.2 121 55.2 124 C 52.2 127 46.2 127 42.2 124 Z M 55.2 124 L 59.2 120.5 C 58.6 123 58.6 125 59.2 127.5 Z"/>
    <circle cx="45.7" cy="123.4" r="0.7" fill="currentColor" stroke="none"/>
    <path d="M 44 82 C 42 78 45 74 49 74 C 53 74 56 77 55 81 C 54.5 83.5 52 85 49 85 Z"/>
    <path d="M 44 82 C 40 81 37 77 38 73"/>
    <path d="M 49 72 L 48 69 M 51 72 L 51.5 69"/>
    <line x1="47" y1="85" x2="47" y2="88"/>
    <line x1="52" y1="85" x2="52" y2="88"/>
    <path d="M 72.5 47.7 C 76.5 44.7 82.5 44.7 85.5 47.7 C 82.5 50.7 76.5 50.7 72.5 47.7 Z M 85.5 47.7 L 89.5 44.2 C 88.9 46.7 88.9 48.7 89.5 51.2 Z"/>
    <circle cx="76" cy="47.1" r="0.7" fill="currentColor" stroke="none"/>
    <path d="M 116 51.2 C 114 47.2 117 43.2 121 43.2 C 125 43.2 128 46.2 127 50.2 C 126.5 52.7 124 54.2 121 54.2 Z"/>
    <path d="M 116 51.2 C 112 50.2 109 46.2 110 42.2"/>
    <path d="M 121 41.2 L 120 38.2 M 123 41.2 L 123.5 38.2"/>
    <path d="M 144.3 81 C 148.3 78 154.3 78 157.3 81 C 154.3 84 148.3 84 144.3 81 Z M 157.3 81 L 161.3 77.5 C 160.7 80 160.7 82 161.3 84.5 Z"/>
    <circle cx="147.8" cy="80.4" r="0.7" fill="currentColor" stroke="none"/>
  </g>
</svg>
