<svg xmlns="http://www.w3.org/2000/svg" viewBox="0 0 200 200" fill="none" stroke="currentColor" stroke-width="1.5" stroke-linecap="round" stroke-linejoin="round" role="img" aria-label="A knotted hammock end and a small overturned crown">
  <circle cx="100" cy="100" r="94" stroke-width="1"/>
  <circle cx="100" cy="100" r="88" stroke-width="0.5"/>
  <line x1="55" y1="150" x2="148" y2="150" stroke-width="1"/>
  <line x1="66" y1="150" x2="66" y2="55" stroke-width="2"/>
  <path d="M62 58 H70" stroke-width="1.5"/>
  <path d="M63 96 l6 -5 M63 108 l6 -5 M63 120 l6 -5" stroke-width="0.75"/>
  <circle cx="72" cy="86" r="5"/>
  <path d="M68 80 C74 78 76 84 71 86 C66 88 66 92 72 92"/>
  <path d="M76 84 C100 82 124 88 146 104 M76 87 C100 88 122 96 143 112 M76 90 C98 94 118 104 139 120"/>
  <path d="M78 92 C98 100 114 112 134 128 M79 94 C96 104 110 118 128 134 M80 96 C95 108 106 122 120 138" stroke-width="0.75"/>
  <path d="M100 138 L104 148 L108 141 L112 148 L116 141 L120 148 L124 138"/>
  <path d="M99 136 C107 133 117 133 125 136" stroke="var(--em-accent, #f2b705)"/>
  <circle cx="104" cy="149.5" r="0.9" fill="currentColor" stroke="none"/>
  <circle cx="112" cy="149.5" r="0.9" fill="currentColor" stroke="none"/>
  <circle cx="120" cy="149.5" r="0.9" fill="currentColor" stroke="none"/>
  <ellipse cx="112" cy="152" rx="16" ry="1.8" stroke-width="0.75"/>
</svg>
