<svg xmlns="http://www.w3.org/2000/svg" viewBox="0 0 360 140" fill="none" stroke="currentColor" stroke-width="1.5" stroke-linecap="round" stroke-linejoin="round" role="img" aria-label="A caravan crossing a sierra pass toward a river valley under a compass-rose sun">
  <rect x="4" y="4" width="352" height="132" rx="2" stroke-width="1"/>
  <rect x="9" y="9" width="342" height="122" rx="1" stroke-width="0.5"/>
  <circle cx="312" cy="38" r="9" fill="var(--em-accent, #f2b705)" stroke="none"/>
  <g stroke-width="1">
    <path d="M 312 24 L 312 17"/>
    <path d="M 312 52 L 312 59"/>
    <path d="M 326 38 L 333 38"/>
    <path d="M 298 38 L 291 38"/>
    <path d="M 322 28 L 326.5 23.5"/>
    <path d="M 302 28 L 297.5 23.5"/>
    <path d="M 322 48 L 326.5 52.5"/>
    <path d="M 302 48 L 297.5 52.5"/>
  </g>
  <path d="M 14 98 L 46 46 L 70 78 L 94 34 L 122 80 L 146 58 L 166 88" stroke-width="1.5"/>
  <g stroke-width="0.75">
    <path d="M 40 60 L 46 66"/>
    <path d="M 34 70 L 40 76"/>
    <path d="M 88 48 L 94 56"/>
    <path d="M 92 44 L 98 52"/>
    <path d="M 138 66 L 143 72"/>
  </g>
  <path d="M 12 108 C 80 100, 140 106, 200 104 C 260 102, 310 110, 348 106" stroke-width="1.5"/>
  <path d="M 200 90 C 204 83, 220 83, 226 90 C 228 96, 227 99, 226 100" stroke-width="2"/>
  <g stroke-width="1.5">
    <path d="M 203 100 L 202 108"/>
    <path d="M 209 100 L 209 108"/>
    <path d="M 219 100 L 220 108"/>
    <path d="M 225 99 L 226 107"/>
  </g>
  <path d="M 225 88 C 231 84, 236 85, 238 91" stroke-width="1.5"/>
  <path d="M 234 85 L 235 81" stroke-width="1"/>
  <path d="M 200 91 C 196 94, 195 98, 196 102" stroke-width="1"/>
  <rect x="203" y="76" width="9" height="8" rx="2" stroke-width="1.5"/>
  <rect x="214" y="74" width="10" height="9" rx="2" stroke-width="1.5"/>
  <path d="M 244 106 C 244 90, 260 90, 260 106 Z" stroke-width="2"/>
  <circle cx="252" cy="84" r="4.5" stroke-width="1.5"/>
  <path d="M 245.5 80.5 L 258.5 80.5" stroke-width="1"/>
  <path d="M 170 107 C 170 94, 182 94, 182 107 Z" stroke-width="2"/>
  <circle cx="176" cy="89" r="4" stroke-width="1.5"/>
  <path d="M 184 95 L 190 108" stroke-width="1"/>
  <path d="M 252 92 L 276 72" stroke-width="1"/>
  <path d="M 276 72 L 276 77" stroke-width="0.5"/>
  <circle cx="276" cy="78.5" r="1.5" stroke-width="0.75"/>
  <path d="M 269 91 C 269 80, 283 80, 283 91 Z" stroke-width="1"/>
  <g stroke-width="0.5">
    <path d="M 273 81.5 L 273 91"/>
    <path d="M 276 80 L 276 91"/>
    <path d="M 279 81.5 L 279 91"/>
  </g>
  <path d="M 300 131 C 310 120, 302 112, 314 104 C 324 97, 328 90, 326 82" stroke-width="1"/>
  <path d="M 308 131 C 316 122, 309 113, 320 106" stroke-width="0.75"/>
  <path d="M 286 106 C 300 96, 316 88, 330 84" stroke-width="0.75"/>
</svg>
