<svg xmlns="http://www.w3.org/2000/svg" viewBox="0 0 360 140" fill="none" stroke="currentColor" stroke-width="1.5" stroke-linecap="round" stroke-linejoin="round" role="img" aria-label="A moonlit street where every object wears a small blank tag">
  <rect x="4" y="4" width="352" height="132" rx="2" stroke-width="1"/>
  <rect x="9" y="9" width="342" height="122" rx="1" stroke-width="0.5"/>
  <path d="M 182 22 C 194 23, 201 33, 198 45 C 207 36, 206 24, 196 18 C 190 15, 184 17, 182 22 Z" fill="var(--em-accent, #f2b705)" stroke="none"/>
  <g fill="currentColor" stroke="none">
    <circle cx="60" cy="26" r="0.8"/>
    <circle cx="120" cy="20" r="0.8"/>
    <circle cx="280" cy="24" r="0.8"/>
  </g>
  <path d="M 14 110 L 346 110" stroke-width="1.5"/>
  <path d="M 14 116 L 160 116" stroke-width="0.75"/>
  <path d="M 230 116 L 346 116" stroke-width="0.75"/>
  <path d="M 20 62 L 58 42 L 96 62" stroke-width="2"/>
  <path d="M 26 62 L 26 110" stroke-width="1.5"/>
  <path d="M 90 62 L 90 110" stroke-width="1.5"/>
  <rect x="52" y="82" width="14" height="28" stroke-width="1.5"/>
  <rect x="32" y="72" width="12" height="12" stroke-width="0.75"/>
  <path d="M 108 70 L 140 54 L 172 70" stroke-width="2"/>
  <path d="M 114 70 L 114 110" stroke-width="1.5"/>
  <path d="M 166 70 L 166 110" stroke-width="1.5"/>
  <rect x="126" y="80" width="14" height="12" stroke-width="0.75"/>
  <rect x="144" y="88" width="12" height="22" stroke-width="1.5"/>
  <path d="M 244 64 L 280 46 L 316 64" stroke-width="2"/>
  <path d="M 250 64 L 250 110" stroke-width="1.5"/>
  <path d="M 310 64 L 310 110" stroke-width="1.5"/>
  <rect x="256" y="84" width="13" height="26" stroke-width="1.5"/>
  <rect x="284" y="74" width="12" height="12" stroke-width="0.75"/>
  <path d="M 222 110 L 222 56" stroke-width="1.5"/>
  <path d="M 222 56 C 228 54, 232 56, 233 60" stroke-width="1"/>
  <rect x="229" y="60" width="8" height="10" rx="1" stroke-width="1"/>
  <path d="M 96 102 C 95 94, 105 94, 104 102 C 104 106, 96 106, 96 102 Z" stroke-width="1"/>
  <path d="M 187 96 L 202 96" stroke-width="1.5"/>
  <path d="M 188 96 L 188 110" stroke-width="1"/>
  <path d="M 201 96 L 201 110" stroke-width="1"/>
  <path d="M 188 96 L 187 78" stroke-width="1.5"/>
  <path d="M 187 78 L 200 80" stroke-width="1"/>
  <path d="M 332 110 L 332 88" stroke-width="1.5"/>
  <circle cx="332" cy="77" r="11" stroke-width="1.5"/>
  <g stroke-width="0.75">
    <path d="M 62 96 L 62 99"/>
    <rect x="58.5" y="99" width="7" height="9" rx="1"/>
    <path d="M 133 92 L 133 95"/>
    <rect x="129.5" y="95" width="7" height="9" rx="1"/>
    <path d="M 262 96 L 262 99"/>
    <rect x="258.5" y="99" width="7" height="9" rx="1"/>
    <path d="M 224 70 L 226 74"/>
    <rect x="222.5" y="74" width="7" height="9" rx="1"/>
    <path d="M 196 98 L 196 101"/>
    <rect x="192.5" y="101" width="7" height="9" rx="1"/>
    <path d="M 102 98 L 104 100"/>
    <rect x="101" y="100" width="7" height="9" rx="1"/>
    <path d="M 338 84 L 340 88"/>
    <rect x="336.5" y="88" width="7" height="9" rx="1"/>
  </g>
  <g stroke-width="0.5">
    <path d="M 90 110 L 76 124"/>
    <path d="M 166 110 L 152 124"/>
    <path d="M 222 110 L 208 124"/>
    <path d="M 310 110 L 324 124"/>
    <path d="M 332 110 L 344 121"/>
  </g>
</svg>
