<svg xmlns="http://www.w3.org/2000/svg" viewBox="0 0 360 140" fill="none" stroke="currentColor" stroke-width="1.5" stroke-linecap="round" stroke-linejoin="round" role="img" aria-label="Rifles stacked in a pyramid beside a torn banner and a drum, thirty-two tick marks counting the uprisings">
  <rect x="4" y="4" width="352" height="132" rx="2" stroke-width="1"/>
  <rect x="9" y="9" width="342" height="122" rx="1" stroke-width="0.5"/>
  <path d="M 24 112 C 100 108, 260 108, 336 112" stroke-width="1.5"/>
  <path d="M 150 112 L 182 50" stroke-width="2"/>
  <path d="M 212 112 L 180 50" stroke-width="2"/>
  <path d="M 178 110 L 181 48" stroke-width="2"/>
  <g stroke-width="1.5">
    <path d="M 182 50 L 185 42"/>
    <path d="M 180 50 L 176 43"/>
    <path d="M 181 48 L 181 40"/>
    <path d="M 148 112 L 153 114"/>
    <path d="M 209 112 L 214 110"/>
  </g>
  <path d="M 162 89 C 170 96, 186 97, 196 90" stroke-width="0.75"/>
  <circle cx="166" cy="81" r="1.2" fill="currentColor" stroke="none"/>
  <circle cx="196" cy="81" r="1.2" fill="currentColor" stroke="none"/>
  <path d="M 92 112 L 114 32" stroke-width="2"/>
  <path d="M 113 35 C 100 38, 88 36, 74 42 L 77 49 L 70 55 L 78 60 C 90 55, 100 58, 110 56 Z" fill="var(--em-accent, #f2b705)" stroke="none"/>
  <path d="M 113 35 C 100 38, 88 36, 74 42 L 77 49 L 70 55 L 78 60 C 90 55, 100 58, 110 56 Z" stroke-width="1"/>
  <ellipse cx="258" cy="84" rx="22" ry="7" stroke-width="2"/>
  <path d="M 236 84 L 236 106" stroke-width="2"/>
  <path d="M 280 84 L 280 106" stroke-width="2"/>
  <path d="M 236 106 C 246 112, 270 112, 280 106" stroke-width="2"/>
  <polyline points="236,88 244,104 252,88 260,104 268,88 276,104" stroke-width="0.75"/>
  <path d="M 246 72 L 268 79" stroke-width="1.5"/>
  <path d="M 268 72 L 246 79" stroke-width="1.5"/>
  <circle cx="269" cy="79.5" r="1.2" fill="currentColor" stroke="none"/>
  <circle cx="245" cy="79.5" r="1.2" fill="currentColor" stroke="none"/>
  <path d="M 190 44 C 196 36, 194 28, 200 22" stroke-width="0.75"/>
  <g stroke-width="1">
    <path d="M 44 121 L 44 127"/>
    <path d="M 52.7 121 L 52.7 127"/>
    <path d="M 61.4 121 L 61.4 127"/>
    <path d="M 70.1 121 L 70.1 127"/>
    <path d="M 78.8 121 L 78.8 127"/>
    <path d="M 87.5 121 L 87.5 127"/>
    <path d="M 96.2 121 L 96.2 127"/>
    <path d="M 104.9 121 L 104.9 127"/>
  </g>
  <g stroke-width="1">
    <path d="M 113.6 121 L 113.6 127"/>
    <path d="M 122.3 121 L 122.3 127"/>
    <path d="M 131 121 L 131 127"/>
    <path d="M 139.7 121 L 139.7 127"/>
    <path d="M 148.4 121 L 148.4 127"/>
    <path d="M 157.1 121 L 157.1 127"/>
    <path d="M 165.8 121 L 165.8 127"/>
    <path d="M 174.5 121 L 174.5 127"/>
  </g>
  <g stroke-width="1">
    <path d="M 183.2 121 L 183.2 127"/>
    <path d="M 191.9 121 L 191.9 127"/>
    <path d="M 200.6 121 L 200.6 127"/>
    <path d="M 209.3 121 L 209.3 127"/>
    <path d="M 218 121 L 218 127"/>
    <path d="M 226.7 121 L 226.7 127"/>
    <path d="M 235.4 121 L 235.4 127"/>
    <path d="M 244.1 121 L 244.1 127"/>
  </g>
  <g stroke-width="1">
    <path d="M 252.8 121 L 252.8 127"/>
    <path d="M 261.5 121 L 261.5 127"/>
    <path d="M 270.2 121 L 270.2 127"/>
    <path d="M 278.9 121 L 278.9 127"/>
    <path d="M 287.6 121 L 287.6 127"/>
    <path d="M 296.3 121 L 296.3 127"/>
    <path d="M 305 121 L 305 127"/>
    <path d="M 313.7 121 L 313.7 127"/>
  </g>
</svg>
