<svg xmlns="http://www.w3.org/2000/svg" viewBox="0 0 200 200" fill="none" stroke="currentColor" stroke-width="1.5" stroke-linecap="round" stroke-linejoin="round" role="img" aria-label="A clock face whose hands bend into a circle, chasing each other around the dial">
  <circle cx="100" cy="100" r="94" stroke-width="1"/>
  <circle cx="100" cy="100" r="88" stroke-width="0.5"/>
  <circle cx="100" cy="102" r="56" stroke-width="2"/>
  <g stroke-width="1.5">
    <path d="M 154 102 L 147 102"/>
    <path d="M 147.2 128.2 L 141.1 124.8"/>
    <path d="M 126.2 149.2 L 122.8 143.1"/>
    <path d="M 98.1 155.9 L 98.4 149"/>
    <path d="M 74.7 149.7 L 77.9 143.5"/>
    <path d="M 52.8 128.2 L 58.9 124.8"/>
    <path d="M 46.1 99.2 L 53.1 99.6"/>
    <path d="M 52.8 75.8 L 58.9 79.2"/>
    <path d="M 74.7 54.3 L 77.9 60.5"/>
    <path d="M 98.1 48.1 L 98.4 55"/>
    <path d="M 126.2 54.8 L 122.8 60.9"/>
    <path d="M 147.2 75.8 L 141.1 79.2"/>
  </g>
  <g stroke="var(--em-accent, #f2b705)" stroke-width="2">
    <path d="M 77.5 89 A 26 26 0 0 1 124.4 93.1"/>
    <path d="M 122.5 115 A 26 26 0 0 1 75.6 110.9"/>
  </g>
  <g fill="var(--em-accent, #f2b705)" stroke="none">
    <polygon points="127,100 120.6,95.2 126.9,92.6"/>
    <polygon points="73.4,104.6 79.8,109.5 73.6,111.9"/>
  </g>
  <circle cx="100" cy="102" r="2" fill="currentColor" stroke="none"/>
  <g stroke-width="0.5">
    <path d="M 100 102 L 91 95"/>
    <path d="M 100 102 L 108 94"/>
  </g>
</svg>
