<svg xmlns="http://www.w3.org/2000/svg" viewBox="0 0 200 200" fill="none" stroke="currentColor" stroke-width="1.5" stroke-linecap="round" stroke-linejoin="round" role="img" aria-label="A rocking chair drawn solid, its seated occupant only a dashed outline">
  <circle cx="100" cy="100" r="94" stroke-width="1"/>
  <circle cx="100" cy="100" r="88" stroke-width="0.5"/>
  <path d="M 56 150 C 80 163, 126 163, 148 146" stroke-width="2"/>
  <path d="M 132 148 C 136 118, 134 88, 126 60" stroke-width="2"/>
  <path d="M 74 148 C 74 132, 76 118, 80 108" stroke-width="2"/>
  <path d="M 76 112 C 94 116, 114 116, 130 113" stroke-width="2"/>
  <path d="M 80 102 C 96 106, 112 106, 124 104" stroke-width="1.5"/>
  <path d="M 80 102 L 79 111" stroke-width="0.75"/>
  <path d="M 124 104 L 126 113" stroke-width="0.75"/>
  <g stroke-width="1.5">
    <path d="M 127 66 C 120 70, 114 76, 110 84"/>
    <path d="M 129 80 C 122 84, 117 90, 113 98"/>
    <path d="M 131 94 C 125 98, 120 103, 116 108"/>
  </g>
  <g stroke-width="1" stroke-dasharray="3 3">
    <circle cx="103" cy="64" r="9.5"/>
    <path d="M 102 74 C 96 82, 93 92, 93 106"/>
    <path d="M 93 106 C 84 108, 76 109, 70 110"/>
    <path d="M 70 110 C 67 122, 67 136, 71 147"/>
    <path d="M 99 82 C 93 90, 88 97, 84 102"/>
  </g>
  <g stroke-width="0.75">
    <path d="M 66 158 L 78 156"/>
    <path d="M 86 160 L 100 158"/>
    <path d="M 108 160 L 122 158"/>
    <path d="M 130 157 L 140 154"/>
  </g>
</svg>
