<svg xmlns="http://www.w3.org/2000/svg" viewBox="0 0 200 200" fill="none" stroke="currentColor" stroke-width="1.5" stroke-linecap="round" stroke-linejoin="round" role="img" aria-label="A wide-open eye beneath a crescent moon, a blank tag hanging below on a string">
  <circle cx="100" cy="100" r="94" stroke-width="1"/>
  <circle cx="100" cy="100" r="88" stroke-width="0.5"/>
  <path d="M 138 34 C 152 36, 160 48, 156 62 C 166 52, 166 36, 154 28 C 148 24, 141 26, 138 34 Z" fill="var(--em-accent, #f2b705)" stroke="none"/>
  <path d="M 56 92 C 75 73, 125 73, 144 92 C 125 109, 75 109, 56 92 Z" stroke-width="2"/>
  <circle cx="100" cy="90" r="12" stroke-width="1.5"/>
  <circle cx="100" cy="90" r="5" fill="currentColor" stroke="none"/>
  <g stroke-width="0.75">
    <path d="M 70 77 L 66 71"/>
    <path d="M 84 72 L 82 66"/>
    <path d="M 100 70 L 100 64"/>
    <path d="M 116 72 L 118 66"/>
    <path d="M 130 77 L 134 71"/>
  </g>
  <path d="M 72 107 C 88 113, 112 113, 128 107" stroke-width="0.75"/>
  <g stroke-width="0.5">
    <path d="M 62 100 L 58 104"/>
    <path d="M 138 100 L 142 104"/>
  </g>
  <path d="M 100 111 C 100 119, 98 125, 98 132" stroke-width="0.75"/>
  <g transform="translate(98 132) rotate(8)">
    <rect x="-8" y="0" width="16" height="24" rx="1.5" stroke-width="1.5"/>
    <circle cx="0" cy="4.5" r="1.5" stroke-width="0.75"/>
  </g>
</svg>
