<svg xmlns="http://www.w3.org/2000/svg" viewBox="0 0 200 200" fill="none" stroke="currentColor" stroke-width="1.5" stroke-linecap="round" stroke-linejoin="round" role="img" aria-label="A column of ants crossing the field diagonally, carrying leaf fragments and one small spiral">
  <circle cx="100" cy="100" r="94" stroke-width="1"/>
  <circle cx="100" cy="100" r="88" stroke-width="0.5"/>
  <path d="M 34 168 C 70 140, 130 72, 168 36" stroke-width="0.5"/>
  <g fill="currentColor" stroke="none">
    <circle cx="44" cy="159" r="1.3"/><circle cx="46.6" cy="156.6" r="1.1"/><circle cx="49.4" cy="154.2" r="1.7"/>
    <circle cx="58" cy="146" r="1.3"/><circle cx="60.6" cy="143.6" r="1.1"/><circle cx="63.4" cy="141.2" r="1.7"/>
    <circle cx="72" cy="133" r="1.3"/><circle cx="74.6" cy="130.6" r="1.1"/><circle cx="77.4" cy="128.2" r="1.7"/>
    <circle cx="86" cy="119" r="1.3"/><circle cx="88.6" cy="116.6" r="1.1"/><circle cx="91.4" cy="114.2" r="1.7"/>
    <circle cx="100" cy="105" r="1.3"/><circle cx="102.6" cy="102.6" r="1.1"/><circle cx="105.4" cy="100.2" r="1.7"/>
    <circle cx="114" cy="91" r="1.3"/><circle cx="116.6" cy="88.6" r="1.1"/><circle cx="119.4" cy="86.2" r="1.7"/>
    <circle cx="128" cy="77" r="1.3"/><circle cx="130.6" cy="74.6" r="1.1"/><circle cx="133.4" cy="72.2" r="1.7"/>
    <circle cx="142" cy="63" r="1.3"/><circle cx="144.6" cy="60.6" r="1.1"/><circle cx="147.4" cy="58.2" r="1.7"/>
    <circle cx="156" cy="49" r="1.3"/><circle cx="158.6" cy="46.6" r="1.1"/><circle cx="161.4" cy="44.2" r="1.7"/>
  </g>
  <g stroke-width="0.5">
    <path d="M 46 161 L 48 163"/>
    <path d="M 61 148 L 63 150"/>
    <path d="M 75 135 L 77 137"/>
    <path d="M 89 121 L 91 123"/>
    <path d="M 103 107 L 105 109"/>
    <path d="M 117 93 L 119 95"/>
    <path d="M 131 79 L 133 81"/>
    <path d="M 145 65 L 147 67"/>
    <path d="M 159 51 L 161 53"/>
  </g>
  <g stroke-width="0.75">
    <path d="M 56 138 C 59 134, 64 133, 67 135 C 64 138, 59 139, 56 138 Z"/>
    <path d="M 55 137 C 58 135, 62 134.5, 66 135.5"/>
    <path d="M 112 83 C 115 79, 120 78, 123 80 C 120 83, 115 84, 112 83 Z"/>
    <path d="M 111 82 C 114 80, 118 79.5, 122 80.5"/>
    <path d="M 140 55 C 143 51, 148 50, 151 52 C 148 55, 143 56, 140 55 Z"/>
    <path d="M 139 54 C 142 52, 146 51.5, 150 52.5"/>
  </g>
  <path d="M 96 92 C 102 88, 108 92, 105 98 C 103 102, 97 101, 98 96 C 98.5 93.5, 102 93.5, 102 96" stroke="var(--em-accent, #f2b705)" stroke-width="1.5"/>
</svg>
