<svg xmlns="http://www.w3.org/2000/svg" viewBox="0 0 200 200" fill="none" stroke="currentColor" stroke-width="1.5" stroke-linecap="round" stroke-linejoin="round" role="img" aria-label="A genealogical line descending from above into a tight spiral curl, the tail of a pig">
  <circle cx="100" cy="100" r="94" stroke-width="1"/>
  <circle cx="100" cy="100" r="88" stroke-width="0.5"/>
  <path d="M 100 13 L 100 84" stroke-width="0.75"/>
  <circle cx="100" cy="26" r="1.3" fill="currentColor" stroke="none"/>
  <circle cx="100" cy="41" r="1.3" fill="currentColor" stroke="none"/>
  <circle cx="100" cy="56" r="1.3" fill="currentColor" stroke="none"/>
  <circle cx="100" cy="71" r="1.3" fill="currentColor" stroke="none"/>
  <path d="M 100 84 C 126 88, 134 112, 116 126 C 100 138, 80 128, 84 108 C 87 95, 104 92, 108 104 C 110 112, 102 117, 97 111" stroke="var(--em-accent, #f2b705)" stroke-width="2"/>
  <g stroke-width="0.75">
    <path d="M 116 89 L 120 85"/>
    <path d="M 126 98 L 131 96"/>
    <path d="M 128 112 L 133 114"/>
    <path d="M 120 123 L 123 127"/>
  </g>
</svg>
