<svg xmlns="http://www.w3.org/2000/svg" viewBox="0 0 200 200" fill="none" stroke="currentColor" stroke-width="1.5" stroke-linecap="round" stroke-linejoin="round" role="img" aria-label="Small yellow flowers falling at a drift angle, gathering in a low drift">
  <circle cx="100" cy="100" r="94" stroke-width="1"/>
  <circle cx="100" cy="100" r="88" stroke-width="0.5"/>
  <g fill="var(--em-accent, #f2b705)" stroke="none">
    <path transform="translate(58 44) rotate(20)" d="M 0 -6.5 C 4 -6.5, 5.5 -3, 2.8 -1.2 C 6 0, 5.5 4, 1.8 3.6 C 1.6 7, -1.6 7, -1.8 3.6 C -5.5 4, -6 0, -2.8 -1.2 C -5.5 -3, -4 -6.5, 0 -6.5 Z"/>
    <path transform="translate(94 34) rotate(-15)" d="M 0 -6.5 C 4 -6.5, 5.5 -3, 2.8 -1.2 C 6 0, 5.5 4, 1.8 3.6 C 1.6 7, -1.6 7, -1.8 3.6 C -5.5 4, -6 0, -2.8 -1.2 C -5.5 -3, -4 -6.5, 0 -6.5 Z"/>
    <path transform="translate(130 52) rotate(40)" d="M 0 -6.5 C 4 -6.5, 5.5 -3, 2.8 -1.2 C 6 0, 5.5 4, 1.8 3.6 C 1.6 7, -1.6 7, -1.8 3.6 C -5.5 4, -6 0, -2.8 -1.2 C -5.5 -3, -4 -6.5, 0 -6.5 Z"/>
    <path transform="translate(72 76) rotate(-30)" d="M 0 -6.5 C 4 -6.5, 5.5 -3, 2.8 -1.2 C 6 0, 5.5 4, 1.8 3.6 C 1.6 7, -1.6 7, -1.8 3.6 C -5.5 4, -6 0, -2.8 -1.2 C -5.5 -3, -4 -6.5, 0 -6.5 Z"/>
    <path transform="translate(110 88) rotate(10)" d="M 0 -6.5 C 4 -6.5, 5.5 -3, 2.8 -1.2 C 6 0, 5.5 4, 1.8 3.6 C 1.6 7, -1.6 7, -1.8 3.6 C -5.5 4, -6 0, -2.8 -1.2 C -5.5 -3, -4 -6.5, 0 -6.5 Z"/>
    <path transform="translate(142 98) rotate(-20)" d="M 0 -6.5 C 4 -6.5, 5.5 -3, 2.8 -1.2 C 6 0, 5.5 4, 1.8 3.6 C 1.6 7, -1.6 7, -1.8 3.6 C -5.5 4, -6 0, -2.8 -1.2 C -5.5 -3, -4 -6.5, 0 -6.5 Z"/>
    <path transform="translate(58 110) rotate(15)" d="M 0 -6.5 C 4 -6.5, 5.5 -3, 2.8 -1.2 C 6 0, 5.5 4, 1.8 3.6 C 1.6 7, -1.6 7, -1.8 3.6 C -5.5 4, -6 0, -2.8 -1.2 C -5.5 -3, -4 -6.5, 0 -6.5 Z"/>
    <path transform="translate(96 118) rotate(-40)" d="M 0 -6.5 C 4 -6.5, 5.5 -3, 2.8 -1.2 C 6 0, 5.5 4, 1.8 3.6 C 1.6 7, -1.6 7, -1.8 3.6 C -5.5 4, -6 0, -2.8 -1.2 C -5.5 -3, -4 -6.5, 0 -6.5 Z"/>
    <path transform="translate(70 146) rotate(8)" d="M 0 -6.5 C 4 -6.5, 5.5 -3, 2.8 -1.2 C 6 0, 5.5 4, 1.8 3.6 C 1.6 7, -1.6 7, -1.8 3.6 C -5.5 4, -6 0, -2.8 -1.2 C -5.5 -3, -4 -6.5, 0 -6.5 Z"/>
    <path transform="translate(87 150) rotate(-12)" d="M 0 -6.5 C 4 -6.5, 5.5 -3, 2.8 -1.2 C 6 0, 5.5 4, 1.8 3.6 C 1.6 7, -1.6 7, -1.8 3.6 C -5.5 4, -6 0, -2.8 -1.2 C -5.5 -3, -4 -6.5, 0 -6.5 Z"/>
    <path transform="translate(104 148) rotate(30)" d="M 0 -6.5 C 4 -6.5, 5.5 -3, 2.8 -1.2 C 6 0, 5.5 4, 1.8 3.6 C 1.6 7, -1.6 7, -1.8 3.6 C -5.5 4, -6 0, -2.8 -1.2 C -5.5 -3, -4 -6.5, 0 -6.5 Z"/>
    <path transform="translate(121 151) rotate(-25)" d="M 0 -6.5 C 4 -6.5, 5.5 -3, 2.8 -1.2 C 6 0, 5.5 4, 1.8 3.6 C 1.6 7, -1.6 7, -1.8 3.6 C -5.5 4, -6 0, -2.8 -1.2 C -5.5 -3, -4 -6.5, 0 -6.5 Z"/>
    <path transform="translate(135 146) rotate(14)" d="M 0 -6.5 C 4 -6.5, 5.5 -3, 2.8 -1.2 C 6 0, 5.5 4, 1.8 3.6 C 1.6 7, -1.6 7, -1.8 3.6 C -5.5 4, -6 0, -2.8 -1.2 C -5.5 -3, -4 -6.5, 0 -6.5 Z"/>
  </g>
  <g fill="currentColor" stroke="none">
    <circle cx="58" cy="44" r="1"/>
    <circle cx="94" cy="34" r="1"/>
    <circle cx="130" cy="52" r="1"/>
    <circle cx="72" cy="76" r="1"/>
    <circle cx="110" cy="88" r="1"/>
    <circle cx="142" cy="98" r="1"/>
    <circle cx="58" cy="110" r="1"/>
    <circle cx="96" cy="118" r="1"/>
    <circle cx="70" cy="146" r="1"/>
    <circle cx="87" cy="150" r="1"/>
    <circle cx="104" cy="148" r="1"/>
    <circle cx="121" cy="151" r="1"/>
    <circle cx="135" cy="146" r="1"/>
  </g>
  <path d="M 52 156 C 76 142, 126 142, 150 156" stroke-width="1.5"/>
  <g stroke-width="0.75">
    <path d="M 62 152 L 70 156"/>
    <path d="M 82 148 L 92 152"/>
    <path d="M 110 148 L 120 152"/>
    <path d="M 132 152 L 140 156"/>
  </g>
  <g stroke-width="0.5">
    <path d="M 44 60 L 50 66"/>
    <path d="M 78 52 L 84 58"/>
    <path d="M 118 68 L 124 74"/>
  </g>
</svg>
