<svg xmlns="http://www.w3.org/2000/svg" viewBox="0 0 240 180" fill="none" stroke="currentColor" stroke-width="1.5" stroke-linecap="round" stroke-linejoin="round" role="img" aria-label="Catarino's store: a counter of bottles under a hung lantern, an accordion resting at the end">
  <rect x="4" y="4" width="232" height="172" rx="2" stroke-width="1"/>
  <rect x="9" y="9" width="222" height="162" rx="1" stroke-width="0.5"/>
  <!-- floor -->
  <line x1="16" y1="152" x2="224" y2="152"/>
  <!-- ceiling beam and hung lantern -->
  <line x1="16" y1="26" x2="224" y2="26" stroke-width="1.5"/>
  <line x1="120" y1="26" x2="120" y2="52" stroke-width="1"/>
  <path d="M112 52 H128 L126 74 H114 Z" stroke-width="1.5"/>
  <path d="M114 52 C114 46 126 46 126 52" stroke-width="1"/>
  <!-- lantern flame: accent -->
  <path d="M120 68 C117 64 118 60 120 57 C122 60 123 64 120 68 Z" fill="var(--em-accent, #f2b705)" stroke="none"/>
  <g stroke-width="0.75">
    <line x1="106" y1="60" x2="100" y2="58"/>
    <line x1="134" y1="60" x2="140" y2="58"/>
  </g>
  <!-- counter -->
  <path d="M36 104 H204" stroke-width="2"/>
  <path d="M36 104 V152 M204 104 V152 M36 112 H204" stroke-width="1.5"/>
  <g stroke-width="0.75">
    <line x1="60" y1="112" x2="60" y2="152"/>
    <line x1="120" y1="112" x2="120" y2="152"/>
    <line x1="180" y1="112" x2="180" y2="152"/>
  </g>
  <!-- bottles on the counter -->
  <path d="M56 104 V88 C56 84 54 84 54 80 C54 77 62 77 62 80 C62 84 60 84 60 88 V104" stroke-width="1.5"/>
  <path d="M74 104 V90 C74 86 72 86 72 82 C72 79 80 79 80 82 C80 86 78 86 78 90 V104" stroke-width="1.5"/>
  <path d="M92 104 V86 C92 82 90 82 90 78 C90 75 98 75 98 78 C98 82 96 82 96 86 V104" stroke-width="1.5"/>
  <line x1="55" y1="94" x2="61" y2="94" stroke-width="0.75"/>
  <line x1="91" y1="92" x2="97" y2="92" stroke-width="0.75"/>
  <!-- accordion resting at the end of the counter -->
  <path d="M150 104 V84 H160 V104 M186 104 V84 H196 V104" stroke-width="2"/>
  <g stroke-width="0.75">
    <line x1="163" y1="86" x2="163" y2="103"/>
    <line x1="167" y1="84.5" x2="167" y2="104"/>
    <line x1="171" y1="86" x2="171" y2="103"/>
    <line x1="175" y1="84.5" x2="175" y2="104"/>
    <line x1="179" y1="86" x2="179" y2="103"/>
    <line x1="183" y1="84.5" x2="183" y2="104"/>
  </g>
  <path d="M160 86 L186 84.5 M160 103 L186 104" stroke-width="1"/>
  <circle cx="154" cy="90" r="1" fill="currentColor" stroke="none"/>
  <circle cx="154" cy="95" r="1" fill="currentColor" stroke="none"/>
  <circle cx="191" cy="92" r="1" fill="currentColor" stroke="none"/>
</svg>
