<svg xmlns="http://www.w3.org/2000/svg" viewBox="0 0 240 180" fill="none" stroke="currentColor" stroke-width="1.5" stroke-linecap="round" stroke-linejoin="round" role="img" aria-label="The gloomy highland city: a skyline of bell towers under long diagonal rain, streets empty, one window lit">
  <rect x="4" y="4" width="232" height="172" rx="2" stroke-width="1"/>
  <rect x="9" y="9" width="222" height="162" rx="1" stroke-width="0.5"/>
  <!-- long diagonal rain, one hatched region -->
  <g stroke-width="0.75">
    <line x1="52" y1="16" x2="34" y2="62"/>
    <line x1="86" y1="14" x2="68" y2="60"/>
    <line x1="120" y1="16" x2="102" y2="62"/>
    <line x1="154" y1="14" x2="136" y2="60"/>
    <line x1="188" y1="16" x2="170" y2="62"/>
    <line x1="218" y1="18" x2="200" y2="64"/>
    <line x1="66" y1="40" x2="52" y2="76"/>
    <line x1="134" y1="42" x2="120" y2="78"/>
    <line x1="202" y1="44" x2="188" y2="80"/>
  </g>
  <!-- street -->
  <line x1="16" y1="150" x2="224" y2="150"/>
  <path d="M60 158 C90 155 150 155 180 158" stroke-width="0.75"/>
  <!-- skyline of bell towers -->
  <path d="M28 150 V88 H48 V150" stroke-width="1.5"/>
  <path d="M26 88 L38 74 L50 88 M34 82 C34 78 42 78 42 82 V88 H34 Z" stroke-width="1.5"/>
  <path d="M62 150 V70 H86 V150" stroke-width="2"/>
  <path d="M60 70 L74 52 L88 70 M68 62 C68 57 80 57 80 62 V70 H68 Z M74 52 V44 M70 47 H78" stroke-width="1.5"/>
  <path d="M100 150 V96 H120 V150" stroke-width="1.5"/>
  <path d="M98 96 L110 82 L122 96 M106 90 C106 86 114 86 114 90 V96 H106 Z" stroke-width="1.5"/>
  <path d="M134 150 V64 H160 V150" stroke-width="2"/>
  <path d="M132 64 L147 46 L162 64 M140 56 C140 51 154 51 154 56 V64 H140 Z M147 46 V38 M143 41 H151" stroke-width="1.5"/>
  <path d="M174 150 V92 H196 V150" stroke-width="1.5"/>
  <path d="M172 92 L185 78 L198 92 M180 86 C180 82 190 82 190 86 V92 H180 Z" stroke-width="1.5"/>
  <path d="M208 150 V104 H222 V150" stroke-width="1"/>
  <path d="M206 104 L215 94 L224 104" stroke-width="1"/>
  <!-- dark narrow windows -->
  <g stroke-width="0.75">
    <path d="M34 106 h8 v12 h-8 Z M34 126 h8 v12 h-8 Z"/>
    <path d="M69 86 h10 v14 h-10 Z M69 128 h10 v14 h-10 Z"/>
    <path d="M106 112 h8 v12 h-8 Z"/>
    <path d="M141 110 h12 v16 h-12 Z"/>
    <path d="M181 108 h8 v12 h-8 Z M181 128 h8 v12 h-8 Z"/>
  </g>
  <!-- the one lit window: accent -->
  <rect x="141" y="82" width="12" height="16" fill="var(--em-accent, #f2b705)" stroke="currentColor" stroke-width="0.75"/>
</svg>
