<svg xmlns="http://www.w3.org/2000/svg" viewBox="0 0 240 180" fill="none" stroke="currentColor" stroke-width="1.5" stroke-linecap="round" stroke-linejoin="round" role="img" aria-label="The zoological brothel: paper lanterns strung between posts, a heron standing tall, a tortoise below">
  <rect x="4" y="4" width="232" height="172" rx="2" stroke-width="1"/>
  <rect x="9" y="9" width="222" height="162" rx="1" stroke-width="0.5"/>
  <!-- ground -->
  <line x1="16" y1="150" x2="224" y2="150"/>
  <!-- posts and sagging string -->
  <line x1="36" y1="150" x2="36" y2="42" stroke-width="2"/>
  <line x1="204" y1="150" x2="204" y2="42" stroke-width="2"/>
  <path d="M36 46 C90 62 150 62 204 46" stroke-width="1"/>
  <!-- paper lanterns -->
  <path d="M70 56 C64 56 62 68 66 74 C68 77 76 77 78 74 C82 68 80 56 74 56 Z M70 56 H74 M67 76 H77" stroke-width="1.5"/>
  <g stroke-width="0.75">
    <path d="M66 62 C70 64 74 64 78 62 M65 68 C70 70 74 70 79 68"/>
  </g>
  <line x1="72" y1="53" x2="72" y2="56" stroke-width="0.75"/>
  <!-- the lit lantern: accent -->
  <g>
    <path d="M118 60 C112 60 110 72 114 78 C116 81 124 81 126 78 C130 72 128 60 122 60 Z" fill="var(--em-accent, #f2b705)" stroke="currentColor" stroke-width="1.5"/>
    <path d="M115 66 C119 68 123 68 127 66 M114 72 C119 74 123 74 128 72" stroke-width="0.75"/>
    <line x1="120" y1="57" x2="120" y2="60" stroke-width="0.75"/>
    <path d="M117 82 V85 M120 82 V86 M123 82 V85" stroke-width="0.75"/>
  </g>
  <path d="M166 56 C160 56 158 68 162 74 C164 77 172 77 174 74 C178 68 176 56 170 56 Z M163 76 H173" stroke-width="1.5"/>
  <line x1="168" y1="52" x2="168" y2="56" stroke-width="0.75"/>
  <!-- the heron -->
  <path d="M84 150 V118 M90 150 V118" stroke-width="1.5"/>
  <path d="M87 118 C78 116 74 106 80 98 C84 92 94 92 98 98 C102 92 100 84 94 80 C90 77 84 78 82 74 C81 71 84 68 88 69 L98 72" stroke-width="2"/>
  <path d="M98 72 L108 76 L98 78 Z" stroke-width="1"/>
  <circle cx="90" cy="72.5" r="0.8" fill="currentColor" stroke="none"/>
  <g stroke-width="0.75">
    <path d="M82 104 C86 102 92 102 96 104 M81 110 C86 108 92 108 97 110"/>
  </g>
  <!-- the tortoise -->
  <path d="M138 150 C136 140 146 132 158 132 C170 132 180 140 178 150 Z" stroke-width="2"/>
  <path d="M178 146 C182 144 186 145 187 148 M187 148 C186 150 183 151 180 150" stroke-width="1.5"/>
  <path d="M144 150 V154 M154 150 V155 M164 150 V155 M172 150 V154" stroke-width="1"/>
  <g stroke-width="0.75">
    <path d="M146 142 C150 138 156 136 162 137 M150 148 C154 143 162 140 170 141"/>
    <circle cx="185" cy="147" r="0.5"/>
  </g>
</svg>
