<svg xmlns="http://www.w3.org/2000/svg" viewBox="0 0 240 180" fill="none" stroke="currentColor" stroke-width="1.5" stroke-linecap="round" stroke-linejoin="round" role="img" aria-label="The great swamp: mangrove roots in mist, a conquistador's breastplate half-sunk in the water">
  <rect x="4" y="4" width="232" height="172" rx="2" stroke-width="1"/>
  <rect x="9" y="9" width="222" height="162" rx="1" stroke-width="0.5"/>
  <!-- mist: broken horizontal strokes -->
  <g stroke-width="0.75">
    <path d="M20 44 H58 M74 44 H96 M120 40 H160 M180 44 H220"/>
    <path d="M30 58 H52 M70 56 H110 M130 58 H150 M170 54 H206"/>
    <path d="M20 72 H40 M120 70 H146 M196 72 H220"/>
  </g>
  <!-- water line -->
  <line x1="16" y1="132" x2="224" y2="132"/>
  <g stroke-width="0.75">
    <path d="M24 142 C40 139 56 139 72 142 M120 146 C136 143 152 143 168 146 M190 140 C200 138 212 138 220 140"/>
    <path d="M50 156 C70 153 94 153 114 156 M160 158 C176 155 194 155 208 158"/>
  </g>
  <!-- mangrove left: trunk on stilt roots -->
  <path d="M56 84 C54 100 52 112 50 118 M64 84 C64 100 66 112 68 118" stroke-width="2"/>
  <path d="M50 118 C42 122 36 128 34 134 M50 118 C48 124 46 130 46 134 M68 118 C74 122 80 128 84 134 M68 118 C68 124 70 130 72 134 M58 118 C56 124 56 130 58 134" stroke-width="1.5"/>
  <path d="M60 84 C50 78 44 68 46 56 C56 58 62 66 62 76 M60 84 C68 76 78 72 88 74 C84 82 74 88 64 86" stroke-width="1.5"/>
  <!-- mangrove right, smaller -->
  <path d="M184 92 C183 104 182 112 180 120 M192 92 C192 104 194 112 196 120" stroke-width="1.5"/>
  <path d="M180 120 C174 124 170 128 168 132 M196 120 C202 124 206 128 208 132 M188 120 C187 125 187 129 188 132" stroke-width="1"/>
  <path d="M188 92 C180 86 176 78 178 68 C186 70 191 78 190 86" stroke-width="1"/>
  <!-- reeds -->
  <path d="M110 132 C110 120 112 108 116 100 M122 132 C122 122 124 114 128 106 M100 132 C99 124 100 116 103 110" stroke-width="1"/>
  <!-- half-sunk breastplate, rim accented -->
  <path d="M132 132 C130 118 136 106 148 104 C160 106 166 116 164 132" stroke-width="2"/>
  <path d="M132 132 C130 118 136 106 148 104 C160 106 166 116 164 132" stroke="var(--em-accent, #f2b705)" stroke-width="1" transform="translate(0 -2.5)"/>
  <g stroke-width="0.75">
    <path d="M140 116 C145 113 152 113 157 116"/>
    <path d="M138 124 C144 120 153 120 159 124"/>
    <circle cx="148" cy="110" r="0.8"/>
  </g>
  <path d="M128 134 C134 137 144 138 150 137 M158 136 C162 135 166 134 168 133" stroke-width="0.75"/>
</svg>
