<svg xmlns="http://www.w3.org/2000/svg" viewBox="0 0 240 180" fill="none" stroke="currentColor" stroke-width="1.5" stroke-linecap="round" stroke-linejoin="round" role="img" aria-label="The goldsmith workshop: crucible and tongs on a bench above a row of six little fishes">
  <rect x="4" y="4" width="232" height="172" rx="2" stroke-width="1"/>
  <rect x="9" y="9" width="222" height="162" rx="1" stroke-width="0.5"/>
  <!-- bench -->
  <path d="M28 96 H212" stroke-width="2"/>
  <path d="M28 96 V104 H212 V96" stroke-width="1.5"/>
  <path d="M40 104 V156 M200 104 V156 M48 104 V150 M192 104 V150" stroke-width="1.5"/>
  <line x1="16" y1="160" x2="224" y2="160" stroke-width="0.75"/>
  <!-- crucible on a small brazier -->
  <path d="M74 96 L70 78 C70 72 98 72 98 78 L94 96" stroke-width="2"/>
  <path d="M72 78 C78 82 90 82 96 78" stroke-width="0.75"/>
  <path d="M80 68 C80 62 84 62 84 57 M88 68 C88 63 91 63 91 59" stroke-width="0.75"/>
  <g stroke-width="0.75">
    <line x1="74" y1="86" x2="76" y2="94"/>
    <line x1="79" y1="87" x2="80.5" y2="95"/>
    <line x1="84" y1="88" x2="85" y2="95.5"/>
    <line x1="89" y1="87" x2="89.8" y2="95"/>
  </g>
  <!-- tongs lying on the bench -->
  <path d="M118 90 C136 84 156 84 174 89 M118 90 C136 88 156 88 172 92" stroke-width="1.5"/>
  <circle cx="117" cy="90" r="2" stroke-width="1"/>
  <!-- little anvil -->
  <path d="M186 96 V88 H206 C208 88 208 84 204 84 H190 C186 84 184 88 186 88" stroke-width="1.5"/>
  <!-- the row of six fishes: the accent -->
  <g fill="var(--em-accent, #f2b705)" stroke="none">
    <path d="M56 124 C60 120 66 120 70 124 C66 128 60 128 56 124 Z M56 124 L52 121 V127 Z"/>
    <path d="M82 124 C86 120 92 120 96 124 C92 128 86 128 82 124 Z M82 124 L78 121 V127 Z"/>
    <path d="M108 124 C112 120 118 120 122 124 C118 128 112 128 108 124 Z M108 124 L104 121 V127 Z"/>
    <path d="M134 124 C138 120 144 120 148 124 C144 128 138 128 134 124 Z M134 124 L130 121 V127 Z"/>
    <path d="M160 124 C164 120 170 120 174 124 C170 128 164 128 160 124 Z M160 124 L156 121 V127 Z"/>
    <path d="M186 124 C190 120 196 120 200 124 C196 128 190 128 186 124 Z M186 124 L182 121 V127 Z"/>
  </g>
  <g stroke-width="0.75">
    <circle cx="66" cy="123" r="0.5"/>
    <circle cx="92" cy="123" r="0.5"/>
    <circle cx="118" cy="123" r="0.5"/>
    <circle cx="144" cy="123" r="0.5"/>
    <circle cx="170" cy="123" r="0.5"/>
    <circle cx="196" cy="123" r="0.5"/>
  </g>
  <line x1="46" y1="134" x2="210" y2="134" stroke-width="0.75"/>
</svg>
